<?xml version="1.0" encoding="utf-8"?>
<!-- Generator: Adobe Illustrator 22.0.0, SVG Export Plug-In . SVG Version: 6.00 Build 0)  -->
<svg version="1.1" baseProfile="tiny" id="Layer_1" xmlns="http://www.w3.org/2000/svg" xmlns:xlink="http://www.w3.org/1999/xlink"
	 x="0px" y="0px" viewBox="0 0 44.4 15.4" xml:space="preserve">
<path d="M0.3,14.6l0.6-1.1c0.2,0.2,0.5,0.3,0.9,0.3c0.3,0,0.5-0.1,0.7-0.2c0.2-0.2,0.3-0.4,0.4-0.8l1.3-6.6h1.5l-1.3,6.5
	C4,14.2,3.1,15,1.7,15C1.1,15,0.6,14.8,0.3,14.6z"/>
<path d="M7.8,12.3c-0.5-0.2-0.8-0.6-1.1-1c-0.3-0.4-0.4-0.9-0.4-1.5c0-0.7,0.2-1.4,0.5-1.9c0.3-0.6,0.8-1,1.4-1.3
	c0.6-0.3,1.2-0.5,2-0.5c0.6,0,1.2,0.1,1.6,0.3s0.8,0.6,1.1,1c0.3,0.4,0.4,0.9,0.4,1.5c0,0.7-0.2,1.4-0.5,1.9s-0.8,1-1.4,1.3
	s-1.2,0.5-2,0.5C8.8,12.6,8.3,12.5,7.8,12.3z M10.7,11.1c0.3-0.2,0.6-0.5,0.8-0.9c0.2-0.4,0.3-0.8,0.3-1.2c0-0.5-0.1-0.9-0.4-1.2
	c-0.3-0.3-0.7-0.4-1.2-0.4c-0.4,0-0.8,0.1-1.1,0.3C8.6,7.9,8.3,8.1,8.2,8.5C8,8.9,7.9,9.3,7.9,9.7c0,0.5,0.1,0.9,0.4,1.2
	s0.7,0.4,1.2,0.4C10,11.4,10.4,11.3,10.7,11.1z"/>
<path d="M21.1,6.2l-4.4,7c-0.4,0.7-0.9,1.2-1.3,1.4S14.6,15,14,15c-0.3,0-0.6-0.1-0.9-0.2s-0.6-0.2-0.7-0.4l0.7-1.1
	c0.3,0.3,0.6,0.4,1.1,0.4c0.3,0,0.5-0.1,0.7-0.2s0.4-0.4,0.6-0.7l0.2-0.3l-1.5-6.4h1.5l1.1,4.8l3-4.8H21.1z"/>
<path d="M24.3,6.3c0.4-0.1,0.9-0.2,1.4-0.2l-0.3,1.4c-0.1,0-0.3,0-0.4,0c-1.2,0-2,0.6-2.2,1.9l-0.6,3.2h-1.5l1.3-6.4h1.4L23.3,7
	C23.6,6.7,23.9,6.4,24.3,6.3z"/>
<path d="M27,6.2h1.5l-1.3,6.4h-1.5L27,6.2z"/>
<path d="M37.3,3.7l-1.8,8.9h-1.4l0.1-0.7c-0.6,0.5-1.3,0.7-2.1,0.7c-0.5,0-1-0.1-1.4-0.3c-0.4-0.2-0.8-0.5-1-1
	c-0.2-0.4-0.4-0.9-0.4-1.5c0-0.7,0.2-1.4,0.5-1.9c0.3-0.6,0.7-1,1.3-1.3c0.5-0.3,1.2-0.5,1.8-0.5c0.5,0,0.9,0.1,1.3,0.3
	s0.7,0.4,0.9,0.7l0.7-3.4H37.3z M33.6,11.1c0.3-0.2,0.6-0.5,0.8-0.9c0.2-0.4,0.3-0.8,0.3-1.2c0-0.5-0.1-0.9-0.4-1.2
	C34,7.5,33.6,7.4,33,7.4c-0.4,0-0.8,0.1-1.1,0.3c-0.3,0.2-0.6,0.5-0.8,0.9s-0.3,0.8-0.3,1.2c0,0.5,0.1,0.9,0.4,1.2s0.7,0.4,1.2,0.4
	C32.9,11.4,33.3,11.3,33.6,11.1z"/>
<path d="M44.1,9.8H39c0,1,0.6,1.6,1.8,1.6c0.4,0,0.7-0.1,1-0.2c0.3-0.1,0.6-0.3,0.8-0.5l0.6,1c-0.3,0.3-0.7,0.5-1.2,0.7
	c-0.5,0.1-0.9,0.2-1.4,0.2c-0.6,0-1.2-0.1-1.7-0.3s-0.8-0.6-1.1-1s-0.4-0.9-0.4-1.5c0-0.7,0.2-1.4,0.5-1.9c0.3-0.6,0.8-1,1.3-1.3
	c0.6-0.3,1.2-0.5,1.9-0.5c0.9,0,1.6,0.2,2.1,0.8c0.5,0.5,0.8,1.2,0.8,2.1C44.2,9.2,44.2,9.5,44.1,9.8z M39.9,7.7
	c-0.4,0.3-0.6,0.6-0.7,1.1h3.7c0-0.5-0.1-0.9-0.4-1.1s-0.7-0.4-1.2-0.4S40.2,7.4,39.9,7.7z"/>
<path d="M17.5,2.1c1.3-0.4,2.6-0.6,3.9-0.6c3.3,0,6.3,1.1,7.7,1.7L29.3,2c-2.1-0.9-7.2-2.7-12.2-1.1C11,2.8,6.4,1.5,5,1L4.8,2.3l0,0
	C6.6,2.9,11.3,4,17.5,2.1z"/>
<path d="M17.7,2.8C11.4,4.8,6.5,3.6,4.7,3L4.5,4.3C6.2,4.8,11,6,17.3,4.1C22,2.6,27,4.5,28.7,5.3L29,4l-0.1,0
	C27,3.2,22.3,1.4,17.7,2.8z"/>
</svg>
