<?xml version="1.0" encoding="utf-8"?>
<!-- Generator: Adobe Illustrator 22.0.0, SVG Export Plug-In . SVG Version: 6.00 Build 0)  -->
<svg version="1.1" baseProfile="tiny" id="Layer_1" xmlns="http://www.w3.org/2000/svg" xmlns:xlink="http://www.w3.org/1999/xlink"
	 x="0px" y="0px" viewBox="0 0 50 50" xml:space="preserve">
<path fill="none" stroke="#231F20" stroke-width="3" stroke-miterlimit="10" d="M44.9,29H5.1c-1.1,0-2-0.9-2-2v-4c0-1.1,0.9-2,2-2
	h39.8c1.1,0,2,0.9,2,2v4C46.9,28.1,46,29,44.9,29z"/>
<path fill="none" stroke="#231F20" stroke-width="3" stroke-miterlimit="10" d="M44.9,15.4H5.1c-1.1,0-2-0.9-2-2v-4c0-1.1,0.9-2,2-2
	h39.8c1.1,0,2,0.9,2,2v4C46.9,14.5,46,15.4,44.9,15.4z"/>
<path fill="none" stroke="#231F20" stroke-width="3" stroke-miterlimit="10" d="M44.9,42.6H5.1c-1.1,0-2-0.9-2-2v-4c0-1.1,0.9-2,2-2
	h39.8c1.1,0,2,0.9,2,2v4C46.9,41.7,46,42.6,44.9,42.6z"/>
</svg>
