<?xml version="1.0" encoding="utf-8"?>
<!-- Generator: Adobe Illustrator 22.0.0, SVG Export Plug-In . SVG Version: 6.00 Build 0)  -->
<svg version="1.1" baseProfile="tiny" id="Layer_1" xmlns="http://www.w3.org/2000/svg" xmlns:xlink="http://www.w3.org/1999/xlink"
	 x="0px" y="0px" viewBox="0 0 20 20" xml:space="preserve">
<path fill="#005FFF" d="M16.3,19.8H3.7c-2,0-3.6-1.6-3.6-3.6V3.7c0-2,1.6-3.6,3.6-3.6h12.6c2,0,3.6,1.6,3.6,3.6v12.6
	C19.8,18.2,18.2,19.8,16.3,19.8z"/>
<path fill="#FFFFFF" d="M10.7,10.3c-3.6,0.9-6.3,0.4-7.4,0.1L3,11.7c1,0.3,3.7,0.8,7.2-0.1c2.7-0.7,5.5,0.2,6.4,0.6l0.3-1.4l-0.1,0
	C15.9,10.4,13.3,9.6,10.7,10.3z"/>
<path fill="#FFFFFF" d="M10.5,9.5c0.7-0.2,1.5-0.3,2.2-0.3c1.9,0,3.6,0.5,4.4,0.9l0.3-1.4c-1.2-0.4-4-1.3-6.9-0.5
	C7.2,9,4.6,8.4,3.8,8.1L3.5,9.5l0,0C4.5,9.8,7.1,10.4,10.5,9.5z"/>
</svg>
