<?xml version="1.0" encoding="utf-8"?>
<!-- Generator: Adobe Illustrator 22.0.0, SVG Export Plug-In . SVG Version: 6.00 Build 0)  -->
<svg version="1.1" baseProfile="tiny" id="Layer_1" xmlns="http://www.w3.org/2000/svg" xmlns:xlink="http://www.w3.org/1999/xlink"
	 x="0px" y="0px" viewBox="0 0 40 90.8" xml:space="preserve">
<circle fill="#E6EFFF" cx="20" cy="16" r="14.5"/>
<circle fill="#005FFF" cx="20" cy="16" r="8.5"/>
<g>
	<g>
		<path fill="#005FFF" d="M20,38.5c-0.1,0-0.1,0-0.2,0c-0.1,0-0.1-0.1-0.2-0.1c-0.1,0-0.1-0.1-0.1-0.2c0-0.1,0-0.1,0-0.2
			c0-0.1,0-0.3,0.1-0.4c0-0.1,0.1-0.1,0.2-0.1c0.1-0.1,0.3-0.1,0.4,0c0.1,0,0.1,0.1,0.2,0.1c0.1,0,0.1,0.1,0.1,0.2
			c0,0.1,0,0.1,0,0.2c0,0.1,0,0.1,0,0.2c0,0.1-0.1,0.1-0.1,0.2c0,0.1-0.1,0.1-0.2,0.1C20.1,38.5,20.1,38.5,20,38.5z"/>
	</g>
	<g>
		<path fill="#005FFF" d="M19.5,78.7c0-0.3,0.2-0.5,0.5-0.5l0,0c0.3,0,0.5,0.2,0.5,0.5l0,0c0,0.3-0.2,0.5-0.5,0.5l0,0
			C19.7,79.2,19.5,78.9,19.5,78.7z M19.5,73.6c0-0.3,0.2-0.5,0.5-0.5l0,0c0.3,0,0.5,0.2,0.5,0.5l0,0c0,0.3-0.2,0.5-0.5,0.5l0,0
			C19.7,74.1,19.5,73.9,19.5,73.6z M19.5,68.5c0-0.3,0.2-0.5,0.5-0.5l0,0c0.3,0,0.5,0.2,0.5,0.5l0,0c0,0.3-0.2,0.5-0.5,0.5l0,0
			C19.7,69,19.5,68.8,19.5,68.5z M19.5,63.4c0-0.3,0.2-0.5,0.5-0.5l0,0c0.3,0,0.5,0.2,0.5,0.5l0,0c0,0.3-0.2,0.5-0.5,0.5l0,0
			C19.7,63.9,19.5,63.7,19.5,63.4z M19.5,58.3c0-0.3,0.2-0.5,0.5-0.5l0,0c0.3,0,0.5,0.2,0.5,0.5l0,0c0,0.3-0.2,0.5-0.5,0.5l0,0
			C19.7,58.8,19.5,58.6,19.5,58.3z M19.5,53.2c0-0.3,0.2-0.5,0.5-0.5l0,0c0.3,0,0.5,0.2,0.5,0.5l0,0c0,0.3-0.2,0.5-0.5,0.5l0,0
			C19.7,53.8,19.5,53.5,19.5,53.2z M19.5,48.2c0-0.3,0.2-0.5,0.5-0.5l0,0c0.3,0,0.5,0.2,0.5,0.5l0,0c0,0.3-0.2,0.5-0.5,0.5l0,0
			C19.7,48.7,19.5,48.4,19.5,48.2z M19.5,43.1c0-0.3,0.2-0.5,0.5-0.5l0,0c0.3,0,0.5,0.2,0.5,0.5l0,0c0,0.3-0.2,0.5-0.5,0.5l0,0
			C19.7,43.6,19.5,43.4,19.5,43.1z"/>
	</g>
	<g>
		<path fill="#005FFF" d="M20,84.2c-0.1,0-0.1,0-0.2,0c-0.1,0-0.1-0.1-0.2-0.1c-0.1-0.1-0.1-0.2-0.1-0.3c0-0.1,0-0.1,0-0.2
			c0-0.1,0.1-0.1,0.1-0.2c0.2-0.2,0.5-0.2,0.7,0c0.1,0.1,0.2,0.2,0.2,0.4s-0.1,0.3-0.2,0.3c0,0-0.1,0.1-0.2,0.1
			C20.1,84.2,20.1,84.2,20,84.2z"/>
	</g>
</g>
</svg>
